Coordinates
version=1
nRows=31
nColumns=33
inDegrees=yes

Units are S.I. units (second, meters, Newtons, ...)
Angles are in degrees.

endheader
time	ground_thorax_rot_x	ground_thorax_rot_y	ground_thorax_rot_z	ground_thorax_tx	ground_thorax_ty	ground_thorax_tz	clav_prot_r	clav_elev_r	scapula_abduction_r	scapula_elevation_r	scapula_upward_rot_r	scapula_winging_r	shoulder_elv_r	plane_of_elev_r	axial_rot_r	elbow_flexion_r	pro_sup_r	wrist_flex_r	wrist_dev_r	clav_prot_l	clav_elev_l	scapula_abduction_l	scapula_elevation_l	scapula_upward_rot_l	scapula_winging_l	shoulder_elv_l	plane_of_elev_l	axial_rot_l	elbow_flexion_l	pro_sup_l	wrist_flex_l	wrist_dev_l	
4.9200	32.545927	24.762602	31.043749	-175.218991	807.684179	6.357008	0.564435	43.109554	44.999932	44.999261	15.010381	2405.308604	-3537.398972	18.987243	-180.000000	1090.330217	-134.746962	16.237154	13.868901	8.548087	-45.000000	-38.048921	45.000000	-44.283575	-2784.655102	-453.958618	137.821849	153.106488	2892.943255	35.391112	5.479547	-17.773709	
4.9300	32.243621	25.339454	31.891989	-170.789312	805.937610	6.437981	0.718888	43.238675	44.999878	44.998677	14.199733	2405.368106	-3537.775490	18.960584	-180.000000	1090.289403	-134.267775	16.048720	13.766457	8.598086	-45.000000	-37.939016	45.000000	-44.581421	-2784.868249	-454.336638	137.949417	152.838826	2891.430304	20.035683	7.248534	-18.300243	
4.9400	31.934164	25.917402	32.756263	-166.324382	804.174566	6.529423	0.916322	43.381016	44.999781	44.997631	13.310944	2405.439873	-3538.176469	18.932507	-180.000000	1090.282874	-134.159660	15.824538	13.682516	8.654057	-45.000000	-37.833156	45.000000	-44.790496	-2785.058958	-454.720691	138.127623	152.245988	2890.502520	10.879577	8.375525	-18.558104	
4.9500	31.630565	26.477545	33.605508	-161.827951	802.396215	6.633075	1.135810	43.528271	44.999608	44.995752	12.421188	2405.528154	-3538.574212	18.885368	-180.000000	1090.299034	-134.263850	15.574499	13.596763	8.681489	-45.000000	-37.724540	45.000000	-44.914185	-2785.242945	-455.112677	138.335752	151.472019	2890.036844	6.880895	8.973734	-18.607775	
4.9600	31.329048	27.015353	34.436654	-157.303826	800.601052	6.750653	1.372733	43.673807	44.999297	44.992401	11.555437	2405.619350	-3538.964482	18.821012	-180.000000	1090.331496	-134.459997	15.310557	13.498693	8.681642	-45.000000	-37.619756	45.000000	-44.967596	-2785.422247	-455.505860	138.567746	150.595302	2889.958990	7.155427	9.122032	-18.510736	
4.9700	31.046844	27.509974	35.216382	-152.758144	798.788540	6.882980	1.604311	43.811632	44.998741	44.986361	10.804200	2405.718525	-3539.313102	18.717047	-180.000000	1090.357083	-134.493332	15.053207	13.361059	8.617033	-45.000000	-37.502889	45.000000	-44.991700	-2785.617709	-455.912815	138.796243	149.833702	2889.854202	7.582999	9.268518	-18.427181	
4.9800	30.764988	27.980386	35.976053	-148.200893	796.961382	7.029655	1.853028	43.944217	44.997743	44.975645	10.091966	2405.819448	-3539.639492	18.593880	-180.000000	1090.377886	-134.402439	14.805253	13.193506	8.522469	-45.000000	-37.385299	45.000000	-45.000000	-2785.819027	-456.323599	139.030974	149.143466	2889.744565	8.171299	9.400499	-18.364187	
4.9900	30.491248	28.421067	36.709998	-143.646672	795.128868	7.188367	2.127625	44.071959	44.995961	44.956158	9.418474	2405.945458	-3539.932578	18.441976	-180.000000	1090.389681	-134.224347	14.564715	12.998142	8.376453	-45.000000	-37.252466	45.000000	-45.000000	-2786.029720	-456.736921	139.263011	148.537590	2889.616468	8.916089	9.516302	-18.318151	
5.0000	30.195858	28.862767	37.473712	-139.112742	793.305394	7.355648	2.408915	44.186190	44.992756	44.922066	8.657632	2406.083599	-3540.227133	18.306379	-180.000000	1090.393498	-133.982495	14.342173	12.795581	8.258931	-45.000000	-37.121022	45.000000	-45.000000	-2786.220974	-457.148670	139.505628	147.916783	2889.489317	9.794976	9.619676	-18.291189	
5.0100	29.888658	29.289684	38.253032	-134.615965	791.508514	7.527746	2.700713	44.278519	44.987049	44.858724	7.823215	2406.252722	-3540.511513	18.182050	-180.000000	1090.381804	-133.693374	14.141063	12.589462	8.146837	-45.000000	-36.981034	45.000000	-45.000000	-2786.389727	-457.555188	139.753073	147.276425	2889.359113	10.777405	9.707223	-18.278695	
5.0200	29.551737	29.713690	39.073144	-130.170551	789.755634	7.701827	3.006241	44.336012	44.976730	44.751605	6.841081	2406.449321	-3540.803633	18.100738	-180.000000	1090.351783	-133.375005	13.965024	12.388668	8.078928	-45.000000	-36.850809	45.000000	-45.000000	-2786.519391	-457.947471	140.016720	146.545190	2889.241969	11.820217	9.780495	-18.280236	
5.0300	29.199696	30.106880	39.904430	-125.787069	788.062884	7.876248	3.337039	44.346274	44.958513	44.583670	5.769356	2406.700682	-3541.076147	18.043878	-180.000000	1090.296550	-133.033220	13.812629	12.188441	8.006532	-45.000000	-36.718729	45.000000	-45.000000	-2786.613177	-458.318646	140.284830	145.753670	2889.130039	12.893812	9.832153	-18.290761	
5.0400	28.824347	30.476574	40.758362	-121.472841	786.444082	8.050884	3.693344	44.306131	44.925139	44.357295	4.585264	2407.003578	-3541.342066	18.026339	-180.000000	1090.215086	-132.668218	13.683138	11.990285	7.950551	-45.000000	-36.595252	45.000000	-45.000000	-2786.667263	-458.665922	140.564605	144.876189	2889.028818	13.975419	9.866255	-18.309214	
5.0500	28.437789	30.804063	41.609025	-117.233176	784.911176	8.226307	4.069967	44.216541	44.867428	44.079355	3.367749	2407.382996	-3541.575174	18.010219	-180.000000	1090.101956	-132.267534	13.575927	11.788113	7.866649	-45.000000	-36.469606	45.000000	-45.000000	-2786.688595	-458.986439	140.843337	143.971107	2888.931251	15.057231	9.874204	-18.333631	
5.0600	28.036658	31.112892	42.462466	-113.073140	783.474882	8.402869	4.476571	44.090458	44.758266	43.776214	2.108261	2407.830831	-3541.799698	18.011100	-180.000000	1089.959350	-131.810326	13.483224	11.575956	7.772035	-45.000000	-36.349863	45.000000	-45.000000	-2786.690289	-459.280939	141.128986	143.010245	2888.840179	16.146243	9.857096	-18.364516	
5.0700	27.620758	31.406255	43.317370	-108.998877	782.144846	8.579377	4.898605	43.932517	44.578876	43.463255	0.845907	2408.369717	-3542.000830	18.007836	-180.000000	1089.791017	-131.266420	13.407778	11.357071	7.653189	-45.000000	-36.229216	45.000000	-45.000000	-2786.674064	-459.551307	141.411882	142.022168	2888.746537	17.251942	9.809082	-18.399267	
5.0800	27.169909	31.718559	44.207158	-105.018395	780.929165	8.753254	5.313751	43.760968	44.281969	43.163744	-0.460207	2408.997577	-3542.207959	18.034497	-180.000000	1089.592766	-130.628581	13.349257	11.135970	7.559116	-45.000000	-36.128137	45.000000	-45.000000	-2786.640404	-459.808525	141.709436	140.984789	2888.655644	18.361542	9.745729	-18.439021	
5.0900	26.668793	32.059209	45.160633	-101.142689	779.833424	8.920669	5.694132	43.578964	43.862216	42.882364	-1.842153	2409.730598	-3542.415624	18.089082	-180.000000	1089.360957	-129.897426	13.317253	10.925841	7.510358	-45.000000	-36.048886	45.000000	-45.000000	-2786.568844	-460.058970	142.020844	139.895471	2888.566068	19.451063	9.672355	-18.480752	
5.1000	26.115546	32.431752	46.176631	-97.386259	778.860644	9.077842	6.031175	43.394979	43.312971	42.623965	-3.297934	2410.553598	-3542.627618	18.188763	-180.000000	1089.094911	-129.091414	13.305483	10.725474	7.517790	-45.000000	-36.006918	45.000000	-45.000000	-2786.465260	-460.304141	142.353797	138.764488	2888.485355	20.488469	9.601080	-18.524571	
5.1100	25.524541	32.817065	47.236146	-93.767557	778.011140	9.221840	6.319737	43.203494	42.692107	42.384437	-4.798005	2411.433291	-3542.825163	18.315006	-180.000000	1088.804478	-128.216546	13.315603	10.543122	7.570786	-45.000000	-35.987468	45.000000	-45.000000	-2786.324689	-460.539742	142.690849	137.614864	2888.406917	21.454695	9.531366	-18.564570	
5.1200	24.915409	33.203915	48.310414	-90.307853	777.283121	9.351983	6.554207	43.012075	42.039139	42.167474	-6.304095	2412.319363	-3543.007184	18.468529	-180.000000	1088.495351	-127.291627	13.340511	10.377466	7.670908	-45.000000	-35.991094	45.000000	-45.000000	-2786.160197	-460.767324	143.027593	136.482916	2888.333057	22.326297	9.472723	-18.599958	
5.1300	24.332152	33.559454	49.334687	-87.029125	776.672359	9.469457	6.757878	42.818500	41.431531	41.973378	-7.718400	2413.154180	-3543.156020	18.611585	-180.000000	1088.179794	-126.311396	13.370739	10.221797	7.770090	-45.000000	-35.989568	45.000000	-45.000000	-2785.993689	-460.981698	143.340296	135.414232	2888.252852	23.105988	9.413996	-18.624871	
5.1400	23.803456	33.863760	50.255787	-83.950859	776.172436	9.576756	6.932186	42.624183	40.900214	41.797994	-8.962180	2413.894615	-3543.268248	18.734151	-180.000000	1087.871647	-125.276087	13.396140	10.070041	7.851488	-45.000000	-35.984284	45.000000	-45.000000	-2785.848641	-461.178805	143.617205	134.469405	2888.167688	23.798955	9.356442	-18.640300	
5.1500	23.359797	34.095368	51.020602	-81.087920	775.774513	9.676389	7.104146	42.428480	40.479140	41.635063	-9.960161	2414.505411	-3543.344276	18.817844	-180.000000	1087.583449	-124.172707	13.408209	9.915986	7.876647	-45.000000	-35.961293	45.000000	-45.000000	-2785.748350	-461.350002	143.842826	133.683125	2888.072704	24.428272	9.290273	-18.645111	
5.1600	22.990912	34.266085	51.645152	-78.449061	775.467944	9.770431	7.244765	42.237983	40.151938	41.475803	-10.741967	2414.990315	-3543.395950	18.878646	-180.000000	1087.317302	-123.017732	13.411821	9.767773	7.882303	-45.000000	-35.937255	45.000000	-45.000000	-2785.684046	-461.503280	144.022291	133.076725	2887.976686	24.995088	9.228069	-18.644430	
5.1700	22.694631	34.380292	52.133555	-76.036933	775.240531	9.859995	7.362719	42.050399	39.909288	41.317160	-11.317012	2415.358081	-3543.433033	18.915114	-180.000000	1087.074217	-121.833512	13.407025	9.624916	7.864303	-45.000000	-35.910957	45.000000	-45.000000	-2785.655672	-461.641469	144.157185	132.644349	2887.877744	25.504823	9.168675	-18.638219	
5.1800	22.456474	34.449435	52.510376	-73.848533	775.079474	9.945479	7.442539	41.872527	39.736217	41.153106	-11.727900	2415.626612	-3543.461080	18.938973	-180.000000	1086.860095	-120.649344	13.400869	9.497744	7.842731	-45.000000	-35.892161	45.000000	-45.000000	-2785.650234	-461.767159	144.255013	132.378896	2887.785423	25.956585	9.119299	-18.630710	
5.1900	22.268629	34.481775	52.787694	-71.876724	774.972131	10.026944	7.495673	41.701889	39.618771	40.986621	-11.995088	2415.808555	-3543.490451	18.951553	-180.000000	1086.674349	-119.494136	13.394519	9.385924	7.814682	-45.000000	-35.880208	45.000000	-45.000000	-2785.667308	-461.881190	144.320071	132.257786	2887.694827	26.353403	9.079608	-18.621192	
5.2000	22.123079	34.487373	52.983358	-70.111137	774.906846	10.104612	7.525904	41.541703	39.545200	40.817740	-12.143915	2415.917568	-3543.521039	18.960755	-180.000000	1086.519252	-118.389897	13.389295	9.291410	7.783839	-45.000000	-35.875400	45.000000	-45.000000	-2785.700573	-461.984778	144.360949	132.258752	2887.614272	26.697002	9.049965	-18.612237	
5.2100	22.003231	34.478150	53.122614	-68.539262	774.873333	10.178775	7.528363	41.377938	39.495721	40.650897	-12.204617	2415.981728	-3543.552568	18.959415	-180.000000	1086.386829	-117.364247	13.389456	9.212765	7.758382	-45.000000	-35.881692	45.000000	-45.000000	-2785.740801	-462.083592	144.381537	132.359878	2887.533243	26.987234	9.030631	-18.601152	
5.2200	21.896725	34.461880	53.223897	-67.147114	774.862876	10.249616	7.516570	41.202487	39.446748	40.487370	-12.192294	2416.019645	-3543.586500	18.956118	-180.000000	1086.282300	-116.433908	13.390410	9.147790	7.734131	-45.000000	-35.902245	45.000000	-45.000000	-2785.784729	-462.173724	144.394522	132.532587	2887.462994	27.224520	9.016719	-18.589414	
